<?xml version="1.0" encoding="UTF-8"?>
<svg width="662px" height="473px" viewBox="0 0 662 473" version="1.1" xmlns="http://www.w3.org/2000/svg" xmlns:xlink="http://www.w3.org/1999/xlink">
    <title>Artboard</title>
    <defs>
        <linearGradient x1="6.77792969%" y1="39.027611%" x2="5.15117978%" y2="68.0230534%" id="linearGradient-1">
            <stop stop-color="#4D46B5" offset="0%"></stop>
            <stop stop-color="#4D46B5" offset="0%"></stop>
            <stop stop-color="#4D46B5" offset="0%"></stop>
            <stop stop-color="#E40C5B" offset="52%"></stop>
            <stop stop-color="#FF4C3B" offset="100%"></stop>
        </linearGradient>
    </defs>
    <g id="Artboard" stroke="none" stroke-width="1" fill="none" fill-rule="evenodd">
        <path d="M333.5,424 C481.235234,424 601,339.828875 601,236 C601,132.170391 481.235234,48 333.5,48 C185.763721,48 66,132.170391 66,236 C66,339.828875 185.763721,424 333.5,424 Z M333.500313,372 C460.801916,372 564,299.91681 564,210.99927 C564,122.082022 460.801916,50 333.500313,50 C206.198502,50 103,122.082022 103,210.99927 C103,299.91681 206.198502,372 333.500313,372 Z" id="Shape" fill="url(#linearGradient-1)"></path>
        <g id="Group-4" transform="translate(60.000000, 138.000000)">
            <text id="X" font-family="BalooBhaijaan-Regular, Baloo Bhaijaan" font-size="120" font-weight="600" fill="#4D45B5">
                <tspan x="79.44" y="126">X</tspan>
            </text>
            <g id="Property-1=Text-Square" transform="translate(153.000000, 19.000000)" fill="#FE4A3B">
                <path d="M93.2596454,108.348015 L117.00827,108.348015 L124.781818,83.6428977 L162.628566,83.6428977 L170.388129,108.348015 L194.133956,108.348015 L158.00192,0 L129.444829,0 L93.2596454,108.348015 Z M157.011695,65.7588682 L144.133171,24.7600558 L143.313578,24.7600558 L130.409879,65.7588682 L157.011695,65.7588682 Z M37.1558279,108.348015 L0,108.348015 L0,0 L37.4629656,0 C48.0057884,0 57.0814553,2.16863737 64.6913649,6.50880364 C72.2998759,10.8113802 78.1489188,16.9992255 82.2440879,25.0781226 C86.3728241,33.1541282 88.4371921,42.8175763 88.4371921,54.068467 C88.4371921,65.3540559 86.3728241,75.0522022 82.2440879,83.1657975 C78.1489188,91.2765013 72.2635117,97.5019363 64.5878668,101.839211 C56.9449496,106.179377 47.8010299,108.348015 37.1558279,108.348015 Z M22.1603478,88.7204007 L36.2346945,88.7204007 C42.7855666,88.7204007 48.2958628,87.5204213 52.7653036,85.1233542 C57.2691505,82.6886973 60.6468259,78.9326173 62.8988892,73.8551144 C65.1836803,68.7400217 66.3277542,62.1444726 66.3277542,54.068467 C66.3277542,46.0618578 65.1836803,39.5212475 62.8988892,34.440853 C60.6468259,29.36335 57.2862137,25.6246192 52.8164932,23.2246605 C48.3470525,20.8275933 42.8367562,19.627614 36.2858842,19.627614 L22.1603478,19.627614 L22.1603478,88.7204007 Z M249.404753,112 C279.005218,112 303,87.1965715 303,56.5985439 C303,26.0005163 279.005218,1.19708783 249.404753,1.19708783 C219.804289,1.19708783 195.809507,26.0005163 195.809507,56.5985439 C195.809507,87.1965715 219.804289,112 249.404753,112 Z" id="Shape"></path>
            </g>
        </g>
    </g>
</svg>